<svg xmlns="http://www.w3.org/2000/svg" viewBox="0 0 414.68 545.9"><g style="isolation:isolate"><g id="Layer_1" data-name="Layer 1"><path d="M1516.17,1306a808.9,808.9,0,0,1-302.17,0l-28.26-370.13q179.35,44.28,358.7,0Z" transform="translate(-1157.75 -776.81)" style="fill:#8dc63f;stroke:#262626;stroke-miterlimit:10;stroke-width:5px"/><path d="M1569.59,865.48l-4.89,70.86q-201.63,53.8-403.27,0l-.85-75.72C1298.26,898.24,1431.91,903.1,1569.59,865.48Z" transform="translate(-1157.75 -776.81)" style="fill:#8dc63f;stroke:#262626;stroke-miterlimit:10;stroke-width:5px"/><ellipse cx="207.34" cy="81.98" rx="204.84" ry="39.87" style="fill:#8dc63f;stroke:#262626;stroke-miterlimit:10;stroke-width:5px"/><g style="mix-blend-mode:multiply"><line x1="206.54" y1="227.06" x2="213.41" y2="504.07" style="fill:#f7faf5;stroke:#262626;stroke-linecap:round;stroke-miterlimit:10;stroke-width:5px"/><line x1="338.4" y1="227.62" x2="309.38" y2="504.07" style="fill:#f7faf5;stroke:#262626;stroke-linecap:round;stroke-miterlimit:10;stroke-width:5px"/><line x1="284.26" y1="227.47" x2="258.31" y2="503.69" style="fill:#f7faf5;stroke:#262626;stroke-linecap:round;stroke-miterlimit:10;stroke-width:5px"/><line x1="135.5" y1="227.47" x2="161.32" y2="503.69" style="fill:#f7faf5;stroke:#262626;stroke-linecap:round;stroke-miterlimit:10;stroke-width:5px"/><line x1="76.28" y1="227.62" x2="105.29" y2="504.07" style="fill:#f7faf5;stroke:#262626;stroke-linecap:round;stroke-miterlimit:10;stroke-width:5px"/></g><path d="M1365.09,847.64" transform="translate(-1157.75 -776.81)" style="fill:none;stroke:#262626;stroke-linecap:round;stroke-miterlimit:10;stroke-width:10px"/><path d="M1365.09,847.64" transform="translate(-1157.75 -776.81)" style="fill:none;stroke:#262626;stroke-linecap:round;stroke-miterlimit:10;stroke-width:10px"/><path d="M1446.06,837.24c-1.41,6.15-10.72,11.75-18.1,13.17a1.79,1.79,0,0,1-.86,0,1.13,1.13,0,0,1-.58-.56q-8.13-13.61-16.23-27.22l-6.82-11.42c-.72-1.21-2.88-3.48-2.88-4.84a1.12,1.12,0,0,0-1-.57h-69.09a1.12,1.12,0,0,0-1,.57c0,1.36-2.16,3.63-2.88,4.84l-6.82,11.42q-8.12,13.62-16.24,27.22a1.1,1.1,0,0,1-.58.56,1.75,1.75,0,0,1-.85,0c-7.38-1.42-16.69-7-18.1-13.17a6.54,6.54,0,0,1,.21-3.81c.86-2.4,2.75-4.55,4-6.83,2.06-3.66,4.18-7.31,6.18-11q5.73-10.61,11.46-21.21c1.67-3.07,3.35-6.11,5-9.2,1.12-2.16,2.17-4.53,4.46-5.35a12.42,12.42,0,0,1,4-.48c15.21-.14,30.43,0,45.64.11,15.21-.09,30.42-.25,45.63-.11a12.45,12.45,0,0,1,4,.48c2.29.82,3.33,3.19,4.46,5.35,1.61,3.09,3.29,6.13,5,9.2q5.73,10.61,11.47,21.21c2,3.69,4.12,7.34,6.18,11,1.27,2.28,3.17,4.43,4,6.83A6.63,6.63,0,0,1,1446.06,837.24Z" transform="translate(-1157.75 -776.81)" style="fill:#8dc63f;stroke:#262626;stroke-miterlimit:10;stroke-width:5px"/></g></g></svg>