<?xml version="1.0" encoding="UTF-8"?><svg id="a" xmlns="http://www.w3.org/2000/svg" viewBox="0 0 523.17 619.71"><defs><style>.b{fill:#14080e;}.c{stroke-linecap:round;}.c,.d{fill:none;stroke:#14080e;stroke-miterlimit:10;}.e{fill:#ee2e31;}</style></defs><path class="c" d="M334.25,416.16c20.87,.68,60.21,4.75,102.64,27.57,47.91,25.77,74.35,61.77,85.79,79.66"/><path class="d" d="M428.46,243.46c0,98.22-57.47,163.55-129.25,163.55s-130.7-65.33-130.7-163.55,58.19-177.84,129.98-177.84c118.58,0,129.98,65.91,129.98,177.84Z"/><path class="b" d="M222.1,191.43c26.87-19.66,48.19,7.7,80.04-5.9,10.22-4.36,18.48-12.37,24.74-21.98,7.14-10.97,10.49-23.63,16.85-35.05,5.16-9.26,11.95-17.13,21.6-20.61,8.73-3.15,20.1-4.69,28.55,.21,22.34,12.94,29.06,52.93,29.52,52.81,3.56-.92,5.5-45.25-17.1-87.43C373.38,12.01,298.49-8.14,234.18,2.86c-58.47,10-108.6,54.94-130.35,115.02-13.16,36.35-25.67,72.92-39.62,108.94-16.75,43.23-35.88,85.47-51.78,129.08-13.64,37.42-19.31,75.54,.12,112.42,8.12,15.41,19.77,29.9,35.21,36.88,21.93,9.92,49.3,5.43,70.91-3.21,25.29-10.12,42.49-31.65,53-57.74,12.14-30.13,19.94-62.73,20.23-95.69,.3-34.41-7.43-67.57,.74-101.85,4.57-19.18,13.66-43.7,29.47-55.27Z"/><ellipse class="b" cx="372.02" cy="218.31" rx="10.34" ry="16.47"/><ellipse class="b" cx="280.1" cy="221.71" rx="10.34" ry="16.47"/><path class="c" d="M240.88,205.25c2.87-3.55,15.73-18.61,38.11-21.68,17.85-2.45,31.52,4.13,36.23,6.68"/><path class="c" d="M404.5,195.04c-16.7-24.75-56.32-22.38-66.57,7.33-8.23,23.86,8.81,47.34,16.13,69.01,1.93,5.71,2.62,12.25-.19,17.59-1.66,3.14-4.41,5.6-7.48,7.39-7.14,4.17-22.69,6.79-27.53-2.22"/><path class="e" d="M317.48,360.3c-8.52-.18-16.6-2.86-23.53-8.37-2.73-2.17-5.28-4.95-5.9-8.52-1.15-6.59,4.26-13.52,9.86-15.89,6.43-2.72,13.81-.54,17.71,3.13,4.29,4.02,2.73,8.22,5.79,9.06,3.7,1.02,7.67-3.99,10.19-6.23,5.03-4.46,10.3-8.23,17.8-8.06,4.09,.09,8.2,1.69,10.49,4.78,5.02,6.78-2.34,14.5-8.27,18.63-10.99,7.65-22.99,11.7-34.14,11.46Z"/><path class="c" d="M170.51,402.77c-28.44,13.96-75.61,42.01-110.55,91.66-21.22,30.17-33.9,62.58-37.5,71.93-7.99,20.75-12.8,39.02-15.8,52.84"/><path class="b" d="M500.7,386.53c-.96,28.52-23.87,51.08-49.07,61.17-19.71,7.89-41.47,9.4-62.65,8.03-14.38-.93-29.17-3.33-41.27-11.15-15.9-10.29-18.6-25.21-18.82-41.36,52.42-16.43,92.76-76.23,99.75-150.34,.37,.74,.73,1.44,1.09,2.1,16.56,30.81,38.55,57.21,56.83,86.76,8.36,13.51,14.67,28.91,14.14,44.79Z"/></svg>